<?xml version="1.0" encoding="UTF-8" standalone="no"?>
<!-- Created with Inkscape (http://www.inkscape.org/) -->

<svg
   width="194.60457mm"
   height="87.159271mm"
   viewBox="0 0 194.60457 87.159271"
   version="1.1"
   id="svg1"
   xml:space="preserve"
   xmlns="http://www.w3.org/2000/svg"
   xmlns:svg="http://www.w3.org/2000/svg"><defs
     id="defs1" /><g
     id="g3"
     transform="translate(-7.7629787,-2.7657962)"><g
       id="g1"><path
         d="m 77.342622,72.797152 c -0.28461,-0.215269 -1.075304,-0.388461 -1.773488,-0.388461 -1.310277,0 -2.403233,-0.34966 -3.214146,-1.028274 -0.286066,-0.239394 -0.897033,-0.371834 -1.540248,-0.333881 -2.817295,0.166232 -2.937977,-0.91432 -0.651173,-5.8304 0.759335,-1.632387 0.945771,-2.351591 0.945771,-3.648449 0,-2.511286 0.480645,-6.239817 1.585633,-12.300323 0.558152,-3.061281 1.272515,-7.351903 1.587473,-9.534716 0.314958,-2.182812 0.801419,-4.653833 1.081023,-5.491157 0.279604,-0.837325 0.513311,-1.908887 0.519348,-2.38125 0.006,-0.472364 0.364165,-2.16853 0.79584,-3.769259 1.983669,-7.35581 2.399773,-9.147048 2.622324,-11.288534 0.131045,-1.260985 0.437984,-2.689735 0.682085,-3.175 0.489006,-0.97213 1.374972,-1.793335 1.944602,-1.802459 0.202007,-0.0032 0.875876,-0.474685 1.497485,-1.047664 1.678593,-1.5472723 3.528272,-2.3978033 5.214594,-2.3978033 0.774628,0 2.094083,-0.178594 2.932121,-0.396875 2.109887,-0.549555 2.38058,-0.519784 4.826739,0.530862 1.187998,0.510256 2.714056,1.031248 3.391242,1.157759 1.300693,0.242995 2.756233,1.1180883 6.641373,3.9929043 4.84814,3.587395 5.63302,4.530543 8.65063,10.395059 0.93494,1.817005 2.3132,6.14511 2.59761,8.157216 0.24426,1.728049 -0.0915,6.03047 -0.5353,6.859755 -0.14749,0.275583 -0.31583,1.074819 -0.37411,1.776082 -0.22256,2.678404 -2.40003,7.188817 -4.88808,10.125156 -0.67818,0.800365 -1.45735,1.812396 -1.7315,2.248959 -0.87828,1.398608 -4.41614,4.882983 -7.82029,7.702063 -1.81901,1.506377 -3.604957,2.985757 -3.968759,3.28751 -3.233601,2.682086 -12.363383,7.467533 -14.778534,7.746284 -0.779391,0.08996 -1.553298,0.269551 -1.719791,0.3991 -0.387276,0.30134 -2.599374,0.843658 -3.396442,0.832671 -0.335742,-0.0046 -0.841557,-0.183222 -1.124032,-0.396875 z m 6.334424,-10.32683 c 2.232572,-0.761267 8.694683,-4.469763 11.883974,-6.820012 5.65747,-4.169097 9.17559,-7.961912 10.9984,-11.857179 0.8934,-1.909145 1.84209,-5.823551 1.84978,-7.632358 0.008,-1.813172 -1.16475,-5.793782 -2.4748,-8.402262 -2.15973,-4.300275 -4.42542,-5.98576 -10.906078,-8.11321 l -2.936224,-0.963896 -1.693984,0.948718 c -2.031659,1.137833 -2.355443,1.519549 -2.355443,2.776885 0,0.528969 -0.4112,3.036291 -0.913777,5.571826 -0.502578,2.535535 -1.093987,5.622096 -1.314242,6.859023 -1.262629,7.090777 -1.593652,8.729773 -2.56498,12.7 -0.908262,3.712446 -1.336427,6.090304 -2.534653,14.076454 -0.173063,1.153463 0.05048,1.896098 0.51477,1.710154 0.181825,-0.07282 1.28309,-0.457183 2.447257,-0.854143 z"
         style="fill:#000000"
         id="path1-2" /><path
         style="display:inline;fill:#000000"
         d="m 192.4049,2.7657962 h 1.832 c 1.0076,0 1.832,0.09516 1.832,0.211459 0,2.2601697 -9.01705,16.0109858 -46.83125,84.9092478 m -2.38125,2.038567 c 0,0 20.04651,-50.845046 32.35947,-75.716044 0.33089,-0.439367 3.62386,-0.456768 3.62386,-0.01915 M 156.5735,78.432173 C 0,0 0,0 156.5735,78.432173 Z"
         id="path2" /><path
         d="m 16.261117,71.679848 c -1.208978,-0.774764 -2.395631,-2.387238 -2.632723,-3.577452 -0.347022,-1.742072 -0.209913,-8.235035 0.251294,-11.900399 0.238039,-1.891771 0.845658,-5.16599 1.350264,-7.276043 0.504605,-2.110052 0.917445,-4.108391 0.91742,-4.440753 -4.2e-5,-0.571288 2.883509,-12.08037 4.389476,-17.519663 0.382756,-1.382448 0.811313,-3.101467 0.952347,-3.820043 0.431646,-2.199238 1.540072,-4.728106 2.411454,-5.501723 1.174584,-1.042797 3.657003,-1.786172 5.743381,-1.719889 1.686742,0.05359 1.82254,0.0044 6.497951,-2.351408 5.736654,-2.890596 7.054937,-3.402077 10.479407,-4.0659085 4.588468,-0.8894746 5.431037,-0.9172346 8.042071,-0.2649566 3.754367,0.9378971 6.207229,2.9595441 7.976992,6.5746291 0.626139,1.279009 0.743941,1.888608 0.825181,4.270132 0.105001,3.07804 -0.362202,4.98093 -1.6952,6.904446 -0.701455,1.0122 -9.444486,7.224429 -13.199428,9.378654 -3.262425,1.871666 -5.146828,3.231585 -5.171594,3.815889 -0.01165,0.27481 -0.298463,0.734875 -0.663252,1.021818 -0.804438,0.632771 -1.421659,3.169668 -0.86055,3.537028 0.183247,0.119973 2.178646,1.185933 4.434218,2.368802 11.614494,6.09088 20.723706,11.114403 21.590631,11.906742 0.561521,0.51321 1.323108,2.534826 1.055673,2.802261 -0.307951,0.307951 -3.171397,1.362546 -4.147252,1.527416 -0.80227,0.135543 -1.332443,0.02634 -2.420952,-0.498668 C 61.621377,62.48104 59.624982,61.648917 57.951493,61.001597 56.278003,60.354276 54.075347,59.498359 53.056701,59.099559 52.038055,58.700758 49.566754,57.557066 47.56492,56.558021 43.223625,54.391433 36.13435,51.174686 34.233393,50.508863 l -1.360808,-0.476632 -2.211067,1.334356 c -1.216086,0.733897 -2.895675,1.567477 -3.73242,1.852403 -1.207049,0.411019 -1.525251,0.636016 -1.540215,1.089068 -0.05239,1.586204 -0.321936,2.890916 -1.019882,4.936647 -0.422004,1.236928 -1.079375,3.422851 -1.460824,4.857608 -0.686487,2.582109 -2.236676,5.818793 -3.513808,7.336579 -0.781303,0.928525 -1.923296,1.016347 -3.133252,0.240956 z M 35.85194,35.236485 c 5.260178,-1.896951 7.786263,-3.596513 13.130652,-8.83437 2.651826,-2.598966 3.221459,-3.314563 4.185033,-5.257411 l 1.115391,-2.248958 -0.745449,-0.318796 c -1.101601,-0.471105 -1.771019,-0.42528 -4.978782,0.340824 -3.389211,0.809439 -7.108799,2.515874 -10.451042,4.794626 l -2.248958,1.533346 -1.892022,3.689405 c -1.040612,2.029173 -2.034992,4.350891 -2.209732,5.159375 -0.17474,0.808483 -0.378542,1.735427 -0.452892,2.059874 l -0.135183,0.589904 1.418873,-0.42119 c 0.78038,-0.231655 2.24923,-0.720638 3.264111,-1.086629 z"
         style="fill:#000000"
         id="path1-6" /><path
         d="m 125.24884,71.294678 c -0.76812,-0.395783 -1.88001,-1.133404 -2.47086,-1.639157 l -1.07429,-0.919551 0.15132,-3.189489 c 0.11847,-2.497068 0.53458,-5.027557 1.91672,-11.656156 0.99706,-4.781791 1.74956,-9.04243 1.72901,-9.789584 -0.0226,-0.821738 0.1645,-1.773978 0.4939,-2.513542 0.29167,-0.654844 1.13517,-4.048125 1.87444,-7.540625 1.49447,-7.060146 2.95716,-12.897541 3.60182,-14.374338 0.23325,-0.534323 0.40319,-1.444044 0.37765,-2.021605 -0.0751,-1.698645 0.51366,-4.570459 1.08629,-5.298443 0.94893,-1.206366 1.95526,-1.540441 4.17401,-1.385669 1.09866,0.07664 2.51204,0.346455 3.14084,0.599592 0.88102,0.354671 1.54864,0.421948 2.91042,0.293282 1.76978,-0.167216 9.02226,-1.852636 16.7161,-3.8846929 4.68588,-1.23761 5.14042,-1.211246 7.58065,0.439691 4.69885,3.1790109 3.10149,7.4934869 -3.01768,8.1507589 l -1.65475,0.17774 -0.53759,-0.91115 c -0.74373,-1.260531 -1.66735,-1.584227 -3.87081,-1.356577 -3.22963,0.33367 -14.91072,4.180915 -15.84568,5.218879 -0.16329,0.181289 -0.50386,1.341647 -0.7568,2.578574 -0.39529,1.932948 -1.06392,4.992773 -2.94868,13.49375 -0.51927,2.342138 -0.48067,3.029096 0.2154,3.833173 l 0.59532,0.687682 2.77812,-0.824718 c 1.52797,-0.453596 4.14735,-1.285212 5.82083,-1.848036 3.80003,-1.278017 6.57782,-1.848101 9.00504,-1.848101 1.72908,0 1.94703,0.06344 2.65698,0.773397 0.89087,0.890865 1.02795,2.095439 0.31038,2.727308 -0.61914,0.545195 -2.76412,1.60694 -5.20638,2.577108 -1.93139,0.76723 -11.36887,3.445145 -13.50375,3.831731 -1.36309,0.24683 -2.31412,0.751325 -3.59104,1.90495 -1.78168,1.609634 -1.98468,2.177602 -3.54494,9.917984 -0.80997,4.018207 -1.76931,8.214578 -2.13188,9.325269 -1.56667,4.799349 -3.69568,6.162923 -6.98011,4.470565 z"
         style="fill:#000000"
         id="path1-3" /><path
         d="m 81.691197,86.120584 c -1.14228,0.15892 120.441153,-19.924512 120.676343,-19.850658 -0.0699,0.535157 -4.26219,3.971908 -5.88698,4.472876"
         style="display:inline;fill:#000000"
         id="path1-5" /><path
         d="m 8.4099734,78.198783 c -13.25547,-0.26157 181.5401966,-6.062948 183.6869566,-4.374026 0.95108,0.748244 -9.61089,5.272475 -11.9044,5.395146"
         style="display:inline;fill:#000000"
         id="path1-29" /></g></g></svg>
